<svg width="512" height="512" viewBox="0 0 512 512" fill="none" xmlns="http://www.w3.org/2000/svg">
  <title>Vigil icon</title>
  <path d="M86 258C86 158 163 79 263 76C272 76 280 76 288 77" stroke="#2F312E" stroke-width="18" stroke-linecap="round"/>
  <path d="M283 436C274 437 265 438 256 438C165 438 91 364 86 273" stroke="#2F312E" stroke-width="14" stroke-linecap="round"/>
  <path d="M130 130L233 429H279L177 130H130Z" fill="#6D7355"/>
  <path d="M248 130L307 255H354L295 130H248Z" fill="#B2C1B2"/>
  <path d="M311 130L258 257H287L340 130H311Z" fill="#8EA089"/>
  <path d="M222 193C222 168 243 148 269 148C295 148 316 168 316 193V204H222V193Z" fill="#B2C1B2"/>
  <path d="M242 203H296L283 243H255L242 203Z" fill="#2F312E"/>
</svg>
