<svg width="640" height="180" viewBox="0 0 640 180" fill="none" xmlns="http://www.w3.org/2000/svg">
  <title>Vigil wordmark dark</title>
  <g transform="translate(10 10) scale(0.32)">
    <path d="M86 258C86 158 163 79 263 76C272 76 280 76 288 77" stroke="#E5D8C7" stroke-width="18" stroke-linecap="round"/>
    <path d="M283 436C274 437 265 438 256 438C165 438 91 364 86 273" stroke="#E5D8C7" stroke-width="14" stroke-linecap="round"/>
    <path d="M130 130L233 429H279L177 130H130Z" fill="#8D9A70"/>
    <path d="M248 130L307 255H354L295 130H248Z" fill="#B2C1B2"/>
    <path d="M311 130L258 257H287L340 130H311Z" fill="#A4B495"/>
    <path d="M222 193C222 168 243 148 269 148C295 148 316 168 316 193V204H222V193Z" fill="#B2C1B2"/>
    <path d="M242 203H296L283 243H255L242 203Z" fill="#E5D8C7"/>
  </g>
  <text x="192" y="116" fill="#EFE6D8" font-size="92" font-family="Cormorant Garamond, Georgia, serif" font-weight="600" letter-spacing="1">Vigil</text>
</svg>
